# xmcd
#
# Track frame offsets:
#	150
#	20093
#	43324
#	65715
#	87570
#	110705
#	141495
#	168942
#	194270
#	216464
#
# Disc length: 3216 seconds
#
# Revision: 2
# Processed by: cddbd v1.5.2PL0 Copyright (c) Steve Scherf et al.
# Submitted via: EZCDAudioConverter 8.0.2.1
#
DISCID=a40c8e0a
DTITLE=Xuân Hảo - Vol 02. Hà Nội Nơi Có Tình Yêu Tôi
DYEAR=2011
DGENRE=World Pop
TTITLE0=Xuân Hảo - Hà Nội đêm
TTITLE1=Xuân Hảo - Hà Nội Tình Yêu Tôi
TTITLE2=Xuân Hảo - Hà Nội ngày chia xa
TTITLE3=Xuân Hảo - Cám ơn Hà Nội
TTITLE4=Xuân Hảo - Nỗi lòng người đi
TTITLE5=Xuân Hảo - Hà Nội ngày tháng cũ
TTITLE6=Xuân Hảo - Hà Nội và tôi
TTITLE7=Xuân Hảo - Truyền thuyết Hồ Gươm
TTITLE8=Soundtrack - Hà Nội ngày chia xa
TTITLE9=Soundtrack - Truyền thuyết Hồ Gươm
EXTD=
EXTT0=
EXTT1=
EXTT2=
EXTT3=
EXTT4=
EXTT5=
EXTT6=
EXTT7=
EXTT8=
EXTT9=
PLAYORDER=
